<svg version="1.1" id="Layer_1" xmlns="http://www.w3.org/2000/svg" xmlns:xlink="http://www.w3.org/1999/xlink" x="0px" y="0px"
	 width="100%" viewBox="0 0 1024 784" enable-background="new 0 0 1024 784" xml:space="preserve">
<path fill="#000000" opacity="1.000000" stroke="none" 
	d="
M307.708435,774.995972 
	C305.422058,775.210754 303.591248,775.318420 301.760468,775.318481 
	C216.597672,775.322144 131.434875,775.317566 46.272083,775.309814 
	C38.683197,775.309143 38.680573,775.296204 38.668682,767.634827 
	C38.661701,763.135071 38.767445,758.632141 38.628502,754.136658 
	C38.528816,750.911194 39.901196,749.670349 43.075367,749.707214 
	C51.573826,749.805786 60.077969,749.593323 68.572052,749.810059 
	C72.440788,749.908752 74.191994,748.693665 73.753685,744.678772 
	C73.537918,742.702393 73.711861,740.683105 73.715462,738.683228 
	C73.726929,732.313171 74.004356,731.923828 80.584251,732.103577 
	C121.238403,733.214417 161.899933,732.601868 202.558273,732.672180 
	C206.308533,732.678650 210.168640,733.139160 213.740021,731.574646 
	C213.902557,728.963501 211.916779,728.249146 210.656586,727.061829 
	C198.972397,716.053223 188.328278,704.137817 179.491135,690.711365 
	C174.325958,682.863831 174.817032,679.818054 181.832901,673.561890 
	C184.685654,671.018005 187.636612,668.462524 190.910690,666.538025 
	C197.948181,662.401428 202.511917,656.215210 206.510818,649.381592 
	C216.018387,633.134338 225.672134,616.972412 235.133072,600.698242 
	C241.336624,590.027283 249.531799,581.640076 260.915222,576.480896 
	C265.672302,574.324829 265.829437,572.375305 262.030334,568.762817 
	C261.067596,567.847351 260.050812,566.948059 258.929718,566.248169 
	C256.512451,564.739075 256.158783,563.055664 257.381744,560.382324 
	C262.839447,548.451843 264.204010,535.776062 263.628113,522.819763 
	C263.571045,521.536377 263.223175,520.144897 262.607208,519.025330 
	C251.577774,498.978851 252.418472,478.498657 260.440033,457.826691 
	C263.074921,451.036499 266.188141,444.431885 269.022919,437.880463 
	C268.587799,437.365387 268.425995,436.987457 268.157928,436.883453 
	C258.353363,433.078644 260.665436,432.410126 263.506897,425.545929 
	C270.778473,407.979706 277.295380,390.007629 279.927856,371.187042 
	C281.852234,357.429352 281.978638,343.303162 279.770142,329.370911 
	C279.395538,327.007812 278.432678,324.887177 277.134735,322.949738 
	C272.397461,315.878540 266.064789,315.714630 260.908508,322.502014 
	C255.528687,329.583679 251.881241,337.652069 247.848923,345.505157 
	C244.533890,351.961334 243.658218,352.425049 237.625076,348.871826 
	C233.384064,346.374084 230.296921,346.743652 226.439011,349.773621 
	C215.037750,358.728058 203.881775,367.965881 192.878510,377.396210 
	C190.760056,379.211853 189.886078,381.761292 188.983780,384.268494 
	C183.723755,398.884369 180.548035,414.035370 177.551636,429.225525 
	C176.704422,433.520386 178.503174,437.425690 179.923264,441.321777 
	C182.316391,447.887390 184.949890,454.368073 187.219513,460.974731 
	C188.125610,463.612274 188.946167,466.837616 185.727722,468.578339 
	C182.288116,470.438690 179.226898,468.790131 176.698288,466.355957 
	C173.963394,463.723206 173.230286,459.960846 171.678223,456.664276 
	C171.317642,455.898346 170.963760,455.172394 169.909195,454.958069 
	C167.771011,455.944122 168.367340,458.005524 168.362961,459.694946 
	C168.349533,464.870972 168.053497,470.017487 167.255310,475.131226 
	C166.010727,483.104797 162.012222,486.475159 153.977097,486.068329 
	C148.995453,485.816162 144.006378,485.506592 139.121567,484.305115 
	C129.092545,481.838440 125.915955,476.849304 128.105042,466.706848 
	C129.606781,459.749054 132.775116,453.356323 136.849945,447.750275 
	C147.341583,433.316254 153.613297,417.315369 157.150711,399.953705 
	C158.840652,391.659485 161.787064,383.629272 163.828629,375.396240 
	C165.523712,368.560486 169.971588,363.648468 174.601929,358.871552 
	C183.532303,349.658508 192.537689,340.511841 201.738419,331.570648 
	C204.875244,328.522278 204.971359,326.358002 201.744354,323.431000 
	C198.814346,320.773376 194.419113,318.251190 194.320847,314.386536 
	C194.203720,309.781494 200.040894,309.757233 203.085434,307.523926 
	C221.878983,293.737946 237.927719,276.993927 253.803436,260.163239 
	C262.249054,251.209579 271.661560,244.878967 283.565765,242.102127 
	C285.506012,241.649582 287.386902,240.934433 289.284393,240.307938 
	C297.682709,237.535004 300.129852,234.340668 300.637177,225.521820 
	C301.161530,216.407074 299.404205,213.849960 290.723541,210.862244 
	C283.483124,208.370224 276.232697,205.925568 269.183167,202.887253 
	C248.228409,193.855820 238.515884,177.183716 236.793945,155.219803 
	C236.037521,145.571442 236.704620,135.869308 237.967209,126.300385 
	C239.253525,116.551575 243.144043,107.358276 249.256302,99.901413 
	C261.747314,84.662621 265.140839,66.589333 267.733704,48.030853 
	C268.478577,42.699287 269.466797,37.401722 271.065521,32.056213 
	C275.429413,45.931915 277.325653,60.312500 281.803741,74.153320 
	C286.841949,73.424538 289.552429,70.105042 292.315582,67.147255 
	C305.619385,52.906448 322.084564,43.197227 339.061768,34.208183 
	C342.621338,32.323479 342.686737,32.447018 346.791290,33.568821 
	C335.853943,42.449444 328.872223,53.401085 325.073578,68.321693 
	C339.794830,61.038193 353.940643,56.664310 369.181488,62.722767 
	C359.351257,66.439857 348.224060,67.007828 339.733582,74.886520 
	C343.539490,77.712318 347.474976,77.774467 351.134552,78.545532 
	C360.472626,80.513039 369.647217,82.910591 377.688812,88.292351 
	C380.134064,89.928818 381.788361,89.322144 383.874786,87.700081 
	C395.722382,78.489334 409.059906,77.198341 423.188416,80.696373 
	C428.662750,82.051735 433.244965,85.040314 437.260040,88.935150 
	C438.815948,90.444443 440.159546,92.081841 440.328735,94.581146 
	C437.217468,95.679863 434.566498,94.230080 431.896210,93.811096 
	C425.816833,92.857231 419.900879,93.216118 414.238953,95.596977 
	C409.378632,97.640762 408.292725,100.698082 410.230774,105.629120 
	C417.084503,123.067230 418.233276,140.183716 407.747406,156.835724 
	C404.557281,161.901764 401.948822,167.331161 398.973602,172.536774 
	C397.723938,174.723175 397.761047,176.416992 399.698120,178.266571 
	C409.641144,187.760468 410.972473,199.837143 409.004700,212.442291 
	C406.480865,228.609711 389.307953,240.659637 372.456116,238.840576 
	C365.511902,238.090988 358.588226,237.009674 351.567932,237.098557 
	C348.836975,237.133148 346.284180,237.480301 344.199524,239.531479 
	C339.548126,244.108231 340.789398,250.111160 347.045471,251.878113 
	C353.443787,253.685242 359.967438,255.052856 366.446777,256.567688 
	C372.742371,258.039581 376.800598,261.822693 379.586456,267.699554 
	C387.675934,284.764374 393.376007,302.693970 399.215027,320.572266 
	C402.003601,329.110443 404.208282,337.837616 406.828583,346.433136 
	C408.446075,351.739166 407.579834,355.969086 402.365479,358.681122 
	C398.984467,360.439636 397.986816,363.211304 398.067200,366.934082 
	C398.290924,377.292389 400.568573,387.403015 401.485748,397.673218 
	C401.692230,399.985596 403.505798,401.487457 405.371552,402.635406 
	C424.199127,414.219666 443.882294,423.833679 465.767456,428.139893 
	C472.044708,429.375031 478.366638,427.485535 484.691406,427.799774 
	C488.148560,427.971527 491.982544,427.147705 493.342865,431.734100 
	C494.654572,436.156342 492.746704,439.126770 488.904480,441.174530 
	C488.502869,441.388641 488.212555,441.811584 487.515839,442.475983 
	C491.632416,446.277222 495.668365,449.882935 500.424072,452.662598 
	C503.176453,454.271301 504.549103,452.890289 506.099243,450.731079 
	C512.321838,442.063660 519.172424,433.905884 526.160278,425.834564 
	C535.232483,415.355682 546.534790,407.709167 557.640015,399.763489 
	C571.323364,389.973267 585.486267,380.841064 598.498779,370.131226 
	C604.749146,364.986908 604.699707,364.891876 599.604065,358.777863 
	C594.306335,352.421417 594.268616,352.180969 601.591003,347.857880 
	C612.349060,341.506470 623.597900,336.002563 634.057739,329.131805 
	C640.936646,324.613251 646.876526,319.269196 651.582825,312.319061 
	C658.617981,301.929749 667.595703,293.954865 681.596741,293.644043 
	C680.490845,287.961975 679.309265,282.960358 679.578857,277.770233 
	C680.036255,268.962555 686.130127,264.616211 694.543884,267.318390 
	C698.387634,268.552826 701.607239,266.324463 703.716431,261.347229 
	C705.471863,257.204773 702.971191,255.546356 699.906128,254.093628 
	C696.031677,252.257263 691.874207,252.042999 687.690613,252.113342 
	C686.541016,252.132675 685.198181,252.143646 684.510620,253.241989 
	C679.845337,260.693756 671.892639,261.518524 664.446960,262.719177 
	C653.919128,264.416840 643.549500,262.613068 633.408691,259.538208 
	C632.151489,259.157013 630.817383,258.816895 630.180786,256.764923 
	C635.326721,253.581360 641.649231,253.411453 647.913330,250.840515 
	C635.286377,248.361633 622.699219,248.074265 612.992126,238.985062 
	C626.301331,236.718094 639.741150,238.860077 654.863159,236.626541 
	C639.567871,220.462952 629.773254,203.163025 629.928589,181.176727 
	C613.845398,192.856354 596.617432,197.064011 577.236145,196.694305 
	C578.734619,193.755219 580.881775,193.572174 582.574951,192.815460 
	C593.514099,187.926361 604.814026,183.749481 614.501038,176.424133 
	C624.530273,168.839996 624.964539,167.006256 615.833008,158.606232 
	C600.374451,144.385971 584.988342,130.154694 571.592773,113.889664 
	C567.055298,108.380264 560.761108,108.895866 554.492798,110.377876 
	C552.788208,110.780907 550.716797,112.120277 549.373108,110.321747 
	C547.946045,108.411606 549.500732,106.468445 550.598022,104.867386 
	C552.285339,102.405525 554.223572,100.115662 556.934082,96.619415 
	C536.678040,107.054787 523.523804,123.446571 509.146637,138.680618 
	C513.913635,113.791550 526.746033,94.286453 547.945801,80.173645 
	C533.639099,84.552132 521.482361,91.984283 510.997833,102.338203 
	C500.734009,112.474152 491.692902,123.695038 482.838470,134.540634 
	C481.118439,134.028687 480.996307,133.385178 481.171936,132.708206 
	C490.456329,96.925888 507.995880,67.078033 542.015869,49.480083 
	C559.524902,40.422977 577.992737,36.627525 597.604126,41.645569 
	C603.004272,43.027344 607.866272,45.502487 612.493286,48.537025 
	C613.576233,49.247250 614.676758,50.105019 616.685120,49.692822 
	C614.949524,41.038589 607.935608,34.786362 606.352295,26.112423 
	C628.381958,47.489124 645.418884,71.750137 650.699280,102.711731 
	C653.100281,103.398842 653.986938,101.613449 655.113647,100.595261 
	C671.230042,86.031380 690.715759,79.382484 711.792969,76.870491 
	C734.437073,74.171761 756.312378,77.350044 777.061890,87.056877 
	C792.109619,94.096382 805.080139,103.792389 814.526611,117.683693 
	C816.412292,120.456612 818.980347,123.195679 817.889709,127.488052 
	C814.615234,127.687630 812.966125,124.990822 810.638977,123.721313 
	C808.908508,122.777267 806.803650,121.111496 805.278137,123.106186 
	C803.699280,125.170692 806.011902,126.739037 807.389587,128.024353 
	C812.046021,132.368805 817.672729,135.385529 822.812866,139.071472 
	C824.494507,140.277328 826.809021,140.878204 827.730774,143.837570 
	C817.333130,147.019363 808.706604,142.123474 799.451172,137.761505 
	C798.434265,154.616959 790.840454,167.773148 779.937256,179.027222 
	C780.209778,181.256470 781.881409,182.016022 783.018860,183.137878 
	C792.261780,192.253952 795.442566,203.103546 791.804382,215.570419 
	C787.283997,231.060333 778.717102,243.080597 762.652771,248.610748 
	C755.260071,251.155701 748.090637,254.275162 740.260559,255.431152 
	C736.163635,256.036011 734.456787,261.587219 736.141418,268.076294 
	C738.654114,269.050018 740.054260,266.856262 741.830078,265.898987 
	C748.162598,262.485291 752.298157,264.573669 752.598145,271.776642 
	C752.749146,275.401794 752.257751,279.088928 751.717346,282.697174 
	C751.231934,285.937927 752.388062,287.710938 755.435669,288.708649 
	C772.588745,294.324188 785.328247,305.114960 793.471130,321.285736 
	C795.371033,325.058716 798.142578,328.071381 801.535339,330.665955 
	C808.018921,335.623993 814.240295,340.923859 820.696716,345.918671 
	C824.075073,348.532196 824.641174,351.130188 822.276062,354.836060 
	C820.764832,357.203857 817.276978,359.321106 818.901672,362.615387 
	C821.331848,367.542694 824.557495,372.080750 829.234375,375.244904 
	C830.804077,376.306854 832.506897,375.371399 833.988586,374.656952 
	C854.246338,364.888733 874.612488,355.334869 894.125244,344.095612 
	C897.589844,342.099976 900.046448,339.417145 901.618225,335.720306 
	C903.710022,330.800171 905.518127,325.804779 906.708435,320.593353 
	C907.241150,318.261047 907.721130,315.647156 910.815857,315.894501 
	C914.185608,316.163788 914.227966,318.969177 914.298035,321.542511 
	C914.374878,324.362122 914.168152,327.178497 915.071106,329.958008 
	C916.800781,335.282471 919.795349,336.409241 923.792114,332.472076 
	C928.646790,327.689819 932.973572,322.372833 937.550842,317.307068 
	C939.448669,315.206757 941.291992,313.038300 943.357178,311.112122 
	C947.044434,307.672882 949.106079,308.004730 951.409485,312.528503 
	C957.065674,323.637177 956.457153,334.723328 950.735229,345.592041 
	C946.829651,353.010712 940.959595,358.636322 933.756775,362.820343 
	C926.708191,366.914825 919.166504,365.590149 911.846619,363.993256 
	C907.946899,363.142487 904.681458,363.544434 901.377686,365.539825 
	C883.981018,376.046906 866.575745,386.539886 849.143738,396.988281 
	C845.573486,399.128174 841.827332,400.973785 838.249695,403.102020 
	C832.680298,406.415070 827.525208,405.604156 822.372559,402.073914 
	C816.675964,398.171021 812.205933,392.970978 807.272400,388.260803 
	C804.684204,385.789825 802.045654,384.427307 798.301819,385.961060 
	C792.278931,388.428558 791.716675,389.349762 793.925781,395.591461 
	C806.257446,430.432922 818.938660,465.155914 829.788086,500.502228 
	C831.739258,506.858948 833.441162,513.303650 834.968323,519.776123 
	C836.758972,527.364929 836.140686,528.623535 829.459717,532.904602 
	C824.831665,535.870117 819.987549,538.519043 815.500305,541.679077 
	C808.346130,546.717102 807.503235,549.272400 810.972656,557.289612 
	C817.444763,572.245483 820.969055,587.729675 819.066711,603.991455 
	C817.038330,621.330261 814.376770,638.596863 811.868225,655.877014 
	C810.345703,666.364319 808.589111,676.817627 806.937622,687.286194 
	C807.312927,687.510620 807.688293,687.734985 808.063599,687.959351 
	C810.182922,685.994385 812.300049,684.026978 814.421936,682.064819 
	C825.825745,671.519836 838.908020,666.883911 854.370422,670.830566 
	C859.143860,672.048950 863.478333,674.185242 866.587097,678.147583 
	C872.293030,685.420349 872.425598,692.614502 866.936646,700.212585 
	C861.044495,708.368896 852.644287,713.591553 844.433838,719.003174 
	C838.643433,722.819763 832.818298,726.583740 826.438660,730.742859 
	C829.376343,732.515381 831.739624,731.974487 833.942017,731.977051 
	C871.940186,732.021423 909.938477,732.008179 947.936707,732.017700 
	C955.311401,732.019531 955.260803,732.039673 955.341919,739.551575 
	C955.466064,751.039124 953.644287,749.606445 965.329651,749.721558 
	C972.328613,749.790588 979.330078,749.814392 986.327942,749.703369 
	C989.301025,749.656189 990.548279,750.792358 990.483887,753.804138 
	C990.359192,759.634460 990.301880,765.472900 990.474121,771.300354 
	C990.566589,774.428040 989.253296,775.519531 986.334229,775.319946 
	C985.007568,775.229309 983.668823,775.319763 982.335571,775.319702 
	C852.508118,775.314026 722.680664,775.253052 592.853516,775.456909 
	C586.116882,775.467468 582.408875,772.943481 579.484192,767.405579 
	C569.520996,748.540771 569.671753,726.737000 588.871277,711.700806 
	C593.801697,707.839417 596.625000,702.653870 599.584839,697.461609 
	C610.310364,678.646240 620.980530,659.801514 632.219177,641.281189 
	C634.782715,637.056702 637.410950,635.728882 641.944092,638.099792 
	C654.269043,644.545898 668.270996,644.950867 681.329956,648.788208 
	C696.369934,653.207703 711.690979,657.112610 723.838867,667.793823 
	C733.938049,676.673767 741.038696,687.622925 744.369873,700.804871 
	C746.066406,707.518494 748.616211,713.781860 753.579773,718.815369 
	C754.415466,719.662842 755.300232,720.568420 755.153625,721.812439 
	C754.563232,726.821655 757.968201,728.964478 761.618958,730.820496 
	C767.231384,733.673828 772.942932,736.304749 779.492615,736.671326 
	C780.753418,733.796570 779.682617,731.431641 779.016418,729.131287 
	C776.793518,721.455383 774.086426,713.902344 772.224426,706.143982 
	C770.220337,697.793579 766.658020,690.555603 760.370239,684.640320 
	C751.263489,676.073059 745.721802,665.268005 741.929321,653.592957 
	C740.140381,648.085938 736.838501,644.667419 731.889343,641.963806 
	C719.320679,635.098022 706.543091,628.605164 694.396545,620.960938 
	C690.076172,618.241882 687.925476,615.016174 688.679993,609.901672 
	C689.843567,602.014282 690.807983,594.096802 692.032410,586.219360 
	C693.515015,576.680359 693.295288,567.078918 690.101501,558.109558 
	C687.000366,549.400391 687.105042,541.037964 688.423340,532.169861 
	C689.940857,521.961853 692.107727,511.889374 693.903625,501.743011 
	C694.231079,499.893036 694.403748,497.781311 696.318848,495.959564 
	C701.350891,499.597839 704.891479,504.441559 708.206421,509.294739 
	C713.481140,517.017334 719.015076,524.500549 725.307556,531.413940 
	C726.822144,533.077881 727.810425,535.013428 728.139893,537.161072 
	C728.810974,541.535339 731.304077,543.903992 735.541565,544.806702 
	C739.428589,545.634766 743.233337,546.930847 747.149780,547.516968 
	C751.113159,548.110107 753.911438,546.488281 757.537598,543.926208 
	C767.059204,537.198792 763.413086,528.964661 762.133179,521.077087 
	C759.418213,504.346222 755.576843,487.794037 754.529602,470.809784 
	C754.429382,469.184845 753.767883,467.504883 755.351990,465.756134 
	C759.559631,465.755432 759.042847,469.973846 760.891663,472.520752 
	C764.942322,465.332550 761.751831,458.228271 760.675293,450.451965 
	C766.258728,451.459045 767.994568,456.419678 772.114258,458.483551 
	C772.285767,451.349091 767.033447,446.680328 763.474854,440.076721 
	C772.174805,439.328217 777.002747,444.322021 782.655762,449.521912 
	C782.437988,439.296722 775.815613,433.666626 769.564209,426.977753 
	C776.735107,424.674805 782.132263,428.245117 788.393188,429.142639 
	C784.912659,422.626831 779.676025,419.666321 773.268982,418.351044 
	C771.686279,418.026154 769.626221,418.331360 769.181824,416.254730 
	C768.797546,414.459381 770.253235,413.217377 771.369995,411.981384 
	C774.275085,408.766266 778.542725,408.779480 782.865112,407.297913 
	C773.003845,402.362000 765.552429,406.667267 758.917725,412.334961 
	C755.281494,410.401184 757.854126,406.783020 755.595032,404.847595 
	C752.297668,404.351715 750.969849,408.440887 747.135681,408.433563 
	C746.336975,402.176331 751.797485,397.812286 752.564880,391.438843 
	C740.063293,395.867126 737.104126,408.423309 728.574890,417.237762 
	C721.396790,403.798279 718.991089,389.839111 715.948242,375.588348 
	C712.088989,378.270203 710.873657,381.595428 710.327942,385.249542 
	C709.738098,389.198700 709.401001,393.188416 708.726013,397.121399 
	C707.705200,403.070007 706.881714,403.386871 701.743042,400.271332 
	C701.198303,399.941071 700.645874,399.623444 700.111633,399.308533 
	C699.120422,400.401093 700.812317,401.746796 698.917664,402.977600 
	C692.342346,400.506226 686.940430,393.928680 677.110718,394.304535 
	C684.746765,399.644562 693.044434,401.543701 698.670959,407.786774 
	C696.493042,409.010834 695.316223,407.725403 694.057617,407.109406 
	C683.204468,401.797546 671.929810,398.036072 659.811218,396.818512 
	C649.783325,395.810974 640.210999,397.321075 630.982300,401.106018 
	C624.588379,403.728302 620.592896,408.647583 618.782776,415.805084 
	C626.121216,409.641602 633.529541,403.828674 643.858398,407.526733 
	C643.974670,409.121216 642.829102,409.152802 641.879028,409.244873 
	C634.049133,410.003479 627.590881,413.382507 622.342834,419.222260 
	C620.675232,421.077881 618.750916,422.700134 617.021484,424.503418 
	C613.673767,427.994110 609.934509,430.085999 605.033447,427.897949 
	C603.457886,434.128052 606.582825,440.009583 613.465576,444.452576 
	C619.058899,448.063232 625.367920,449.132874 632.656616,449.195709 
	C627.313782,453.237305 618.895935,453.442657 614.048340,449.827209 
	C608.979675,446.046875 604.246704,441.819061 599.318909,437.846436 
	C594.535645,433.990295 589.261414,433.159119 583.399048,435.216705 
	C583.632812,435.829681 583.703552,436.343842 583.856628,436.369598 
	C590.759277,437.531799 593.471313,441.302124 592.941406,448.502625 
	C592.397766,455.889984 593.579529,463.334991 595.219543,471.764404 
	C585.811768,468.945160 585.174622,460.851379 581.534729,454.369537 
	C580.509155,461.934235 582.569641,468.336090 584.881653,474.680267 
	C587.364136,481.492523 587.254517,482.400818 581.242065,486.776001 
	C562.113037,500.695953 540.425354,507.407379 517.052917,509.327545 
	C500.233734,510.709290 484.529022,504.898407 468.397583,501.875793 
	C456.298157,499.608704 444.194611,497.410553 431.914215,496.418091 
	C423.022125,495.699432 414.355652,497.119843 405.718292,499.217133 
	C393.062927,502.290070 379.895996,501.816193 367.161896,504.324615 
	C341.367279,509.405853 320.055450,521.562866 305.951630,544.461792 
	C299.057892,555.654419 295.872253,568.335327 292.284607,580.810608 
	C290.445526,587.205505 288.657196,593.632324 287.270203,600.135254 
	C285.617706,607.883057 281.043640,613.196899 274.502747,617.181335 
	C268.620667,620.764282 262.140869,622.932983 255.750458,625.340820 
	C254.143433,625.946228 252.081100,625.923767 250.837799,628.437561 
	C263.153595,631.436401 275.245636,631.441772 287.394958,629.047668 
	C299.859436,626.591431 310.747284,620.791748 321.418762,614.014221 
	C332.719086,606.837280 336.112244,595.015686 341.210632,583.903198 
	C342.690796,592.649109 338.974243,600.001221 336.067535,607.632629 
	C343.906952,600.953125 350.386261,593.466125 350.598755,582.428406 
	C350.771973,573.431885 350.544312,564.427124 350.748627,555.431824 
	C351.053986,541.990173 361.527130,526.603271 373.140686,522.343872 
	C373.223755,522.814636 373.525024,523.396790 373.347961,523.679810 
	C364.808197,537.330994 363.830750,552.816772 362.210480,568.224365 
	C360.454376,584.923889 363.295563,601.460632 363.390533,618.088135 
	C363.421143,623.440796 361.714905,627.645386 358.304779,631.684265 
	C350.306488,641.157288 340.982605,649.226379 331.714233,657.337769 
	C325.794373,662.518677 321.060577,668.019714 319.873047,676.234070 
	C316.951050,696.446228 309.564392,715.447876 303.441528,734.787292 
	C302.637695,737.326233 302.134552,739.968506 301.218109,742.462158 
	C299.360504,747.516296 301.019257,751.570007 305.267822,754.080566 
	C308.696381,756.106506 309.825806,758.600220 309.374786,762.208618 
	C308.849945,766.407837 310.663452,770.831055 307.708435,774.995972 
z"/>
<path fill="#000000" opacity="1.000000" stroke="none" 
	d="
M410.629517,689.333984 
	C420.987244,696.662903 431.043182,703.797058 441.141937,710.870056 
	C444.390137,713.145081 447.000671,715.645874 447.242096,720.012512 
	C447.431824,723.444336 450.002625,725.638550 452.426117,727.668945 
	C454.808319,729.664856 455.851349,731.597168 453.686066,734.421265 
	C450.831116,738.144897 451.562012,741.266357 455.140869,744.306274 
	C460.230072,748.629089 465.238831,753.030823 471.177155,756.161987 
	C475.424713,758.401672 476.336609,757.818481 476.802429,753.210083 
	C477.573242,745.584900 478.116302,738.015991 476.952515,730.325378 
	C475.880219,723.239441 472.992401,717.345032 467.864685,712.452515 
	C457.136566,702.216309 446.322937,692.067566 435.710785,681.712463 
	C426.973358,673.186707 426.447327,669.367188 434.278931,659.956909 
	C443.967377,648.315369 454.622070,637.476868 463.058899,624.807068 
	C464.936615,621.987244 467.520905,622.575134 470.215454,623.286255 
	C483.571594,626.811523 496.682312,631.239380 510.234253,634.049500 
	C520.690430,636.217712 531.213196,637.601990 541.910767,637.736206 
	C558.898865,637.949280 575.869812,639.087585 592.870789,638.719116 
	C593.837891,638.698181 594.810303,638.926514 595.680725,639.027344 
	C597.140930,641.585449 595.491577,643.412720 594.685425,645.284363 
	C589.682373,656.899841 583.428345,668.152710 581.080078,680.637024 
	C578.860413,692.437683 573.462769,702.525452 567.396057,712.498474 
	C564.365845,717.479675 561.691162,722.699768 558.379333,727.481873 
	C553.264038,734.868164 551.838501,742.397095 554.952881,751.056763 
	C557.524414,758.207031 555.219788,765.539612 554.293213,772.764282 
	C554.053467,774.634521 552.792297,775.208008 551.132568,775.255188 
	C549.800232,775.293030 548.466858,775.309448 547.133911,775.309570 
	C479.975311,775.314697 412.816559,775.262878 345.658356,775.430359 
	C340.677917,775.442749 337.409790,774.163452 335.358582,769.577087 
	C334.278412,767.161865 332.720734,764.948486 331.276520,762.709839 
	C320.847626,746.544434 323.285400,730.109375 328.871643,712.887878 
	C333.544128,698.483337 341.121490,687.090088 353.365692,678.174438 
	C368.713989,666.998474 383.502655,655.054199 398.545746,643.458313 
	C399.556122,642.679504 400.674957,642.041443 401.777161,641.315613 
	C403.106598,643.375549 401.502686,644.362427 400.784698,645.504456 
	C397.504486,650.721741 393.980347,655.792114 390.851379,661.096619 
	C386.476196,668.513794 386.676422,669.249756 392.760681,675.125916 
	C398.172150,680.352295 404.297089,684.685974 410.629517,689.333984 
z"/>
</svg>